<mxfile host="Electron" agent="Mozilla/5.0 (Windows NT 10.0; Win64; x64) AppleWebKit/537.36 (KHTML, like Gecko) draw.io/24.7.17 Chrome/128.0.6613.36 Electron/32.0.1 Safari/537.36" version="24.7.17" pages="2">
  <diagram name="Макеты WB_доставка" id="18fFIu95Zde8k4f31owS">
    <mxGraphModel dx="1036" dy="606" grid="1" gridSize="10" guides="1" tooltips="1" connect="1" arrows="1" fold="1" page="1" pageScale="1" pageWidth="1169" pageHeight="1654" math="0" shadow="0">
      <root>
        <mxCell id="0" />
        <mxCell id="1" parent="0" />
        <mxCell id="nevb3saH_B1YmjPPsue9-28" value="" style="rounded=1;whiteSpace=wrap;html=1;fillColor=#bac8d3;strokeColor=#0A0300;strokeWidth=4;" parent="1" vertex="1">
          <mxGeometry x="495.48" y="810" width="154.52" height="270" as="geometry" />
        </mxCell>
        <mxCell id="rWrGN3gHzVz8Coaauby0-2" value="" style="rounded=1;whiteSpace=wrap;html=1;rotation=90;strokeWidth=4;" parent="1" vertex="1">
          <mxGeometry x="58.13" y="98.13" width="275" height="168.75" as="geometry" />
        </mxCell>
        <mxCell id="rWrGN3gHzVz8Coaauby0-6" value="" style="rounded=1;whiteSpace=wrap;html=1;rotation=90;strokeWidth=4;" parent="1" vertex="1">
          <mxGeometry x="434.89" y="545" width="270" height="160" as="geometry" />
        </mxCell>
        <mxCell id="rWrGN3gHzVz8Coaauby0-7" value="&lt;span style=&quot;color: rgba(0, 0, 0, 0); font-family: monospace; font-size: 0px; text-align: start; text-wrap: nowrap;&quot;&gt;%3CmxGraphModel%3E%3Croot%3E%3CmxCell%20id%3D%220%22%2F%3E%3CmxCell%20id%3D%221%22%20parent%3D%220%22%2F%3E%3CmxCell%20id%3D%222%22%20value%3D%22%26lt%3Bfont%20style%3D%26quot%3Bfont-size%3A%209px%3B%26quot%3B%26gt%3B%D0%94%D0%B0%D1%82%D0%B0%20%D0%B4%D0%BE%D1%81%D1%82%D0%B0%D0%B2%D0%BA%D0%B8%3A%2014%20%D0%BE%D0%BA%D1%82%D1%8F%D0%B1%D1%80%D1%8F%26lt%3B%2Ffont%26gt%3B%22%20style%3D%22rounded%3D0%3BwhiteSpace%3Dwrap%3Bhtml%3D1%3BfillColor%3D%23f8cecc%3BstrokeColor%3D%23FF3333%3BstrokeWidth%3D4%3B%22%20vertex%3D%221%22%20parent%3D%221%22%3E%3CmxGeometry%20x%3D%22419.93%22%20y%3D%22160%22%20width%3D%22130.07%22%20height%3D%2220%22%20as%3D%22geometry%22%2F%3E%3C%2FmxCell%3E%3C%2Froot%3E%3C%2FmxGraphModel%3E&lt;/span&gt;" style="rounded=1;whiteSpace=wrap;html=1;rotation=90;strokeWidth=4;" parent="1" vertex="1">
          <mxGeometry x="70" y="540" width="270" height="170" as="geometry" />
        </mxCell>
        <mxCell id="rWrGN3gHzVz8Coaauby0-9" value="Имя пользователя" style="rounded=0;whiteSpace=wrap;html=1;" parent="1" vertex="1">
          <mxGeometry x="129.93" y="60" width="80.07" height="30" as="geometry" />
        </mxCell>
        <mxCell id="rWrGN3gHzVz8Coaauby0-10" value="Кошелек" style="rounded=0;whiteSpace=wrap;html=1;align=left;" parent="1" vertex="1">
          <mxGeometry x="119.97" y="122.5" width="70" height="20" as="geometry" />
        </mxCell>
        <mxCell id="rWrGN3gHzVz8Coaauby0-11" value="Доставки&lt;div&gt;по № заказа&lt;/div&gt;" style="rounded=0;whiteSpace=wrap;html=1;strokeWidth=1;align=left;" parent="1" vertex="1">
          <mxGeometry x="190" y="140" width="80.07" height="40" as="geometry" />
        </mxCell>
        <mxCell id="rWrGN3gHzVz8Coaauby0-12" value="Покупки" style="rounded=0;whiteSpace=wrap;html=1;align=left;" parent="1" vertex="1">
          <mxGeometry x="120" y="180" width="150.79" height="20" as="geometry" />
        </mxCell>
        <mxCell id="rWrGN3gHzVz8Coaauby0-13" value="Лист ожидания" style="rounded=0;whiteSpace=wrap;html=1;align=left;" parent="1" vertex="1">
          <mxGeometry x="120" y="200" width="150.79" height="20" as="geometry" />
        </mxCell>
        <mxCell id="rWrGN3gHzVz8Coaauby0-14" value="Отложенные" style="rounded=0;whiteSpace=wrap;html=1;align=left;" parent="1" vertex="1">
          <mxGeometry x="120" y="220" width="150.79" height="20" as="geometry" />
        </mxCell>
        <mxCell id="rWrGN3gHzVz8Coaauby0-15" value="Отзывы" style="rounded=0;whiteSpace=wrap;html=1;align=left;" parent="1" vertex="1">
          <mxGeometry x="120" y="240" width="150.79" height="20" as="geometry" />
        </mxCell>
        <mxCell id="rWrGN3gHzVz8Coaauby0-16" value="" style="rounded=0;whiteSpace=wrap;html=1;" parent="1" vertex="1">
          <mxGeometry x="230" y="60" width="30" height="30" as="geometry" />
        </mxCell>
        <mxCell id="rWrGN3gHzVz8Coaauby0-23" value="Рассрочка" style="rounded=0;whiteSpace=wrap;html=1;align=left;" parent="1" vertex="1">
          <mxGeometry x="190.56" y="120" width="79.44" height="20" as="geometry" />
        </mxCell>
        <mxCell id="rWrGN3gHzVz8Coaauby0-25" value="Подписка" style="rounded=0;whiteSpace=wrap;html=1;align=left;" parent="1" vertex="1">
          <mxGeometry x="120" y="100" width="60" height="22.5" as="geometry" />
        </mxCell>
        <mxCell id="rWrGN3gHzVz8Coaauby0-26" value="Скидка" style="rounded=0;whiteSpace=wrap;html=1;align=left;" parent="1" vertex="1">
          <mxGeometry x="178.98" y="100" width="39.93" height="22.5" as="geometry" />
        </mxCell>
        <mxCell id="rWrGN3gHzVz8Coaauby0-27" value="Оплата" style="rounded=0;whiteSpace=wrap;html=1;align=left;" parent="1" vertex="1">
          <mxGeometry x="220" y="100" width="50" height="22.5" as="geometry" />
        </mxCell>
        <mxCell id="Fezao7reDhcHQFRqTaPX-107" value="" style="edgeStyle=orthogonalEdgeStyle;rounded=0;orthogonalLoop=1;jettySize=auto;html=1;" parent="1" source="rWrGN3gHzVz8Coaauby0-50" target="uTUmELYXSPTPNxnE2Mq3-73" edge="1">
          <mxGeometry relative="1" as="geometry" />
        </mxCell>
        <mxCell id="rWrGN3gHzVz8Coaauby0-50" value="&lt;font style=&quot;font-size: 10px;&quot;&gt;QR-код для получения&lt;/font&gt;" style="rounded=0;whiteSpace=wrap;html=1;" parent="1" vertex="1">
          <mxGeometry x="171.94" y="500" width="48.06" height="40" as="geometry" />
        </mxCell>
        <mxCell id="rWrGN3gHzVz8Coaauby0-55" value="&lt;font style=&quot;font-size: 10px;&quot;&gt;QR-код для получения&lt;/font&gt;" style="rounded=0;whiteSpace=wrap;html=1;" parent="1" vertex="1">
          <mxGeometry x="549.99" y="500" width="50.01" height="40" as="geometry" />
        </mxCell>
        <mxCell id="uTUmELYXSPTPNxnE2Mq3-58" style="edgeStyle=orthogonalEdgeStyle;rounded=0;orthogonalLoop=1;jettySize=auto;html=1;exitX=0;exitY=0.5;exitDx=0;exitDy=0;fillColor=#f0a30a;strokeColor=#000000;strokeWidth=2;" parent="1" source="rWrGN3gHzVz8Coaauby0-57" edge="1">
          <mxGeometry relative="1" as="geometry">
            <mxPoint x="110" y="240" as="targetPoint" />
            <mxPoint x="70.00000000000001" y="450" as="sourcePoint" />
            <Array as="points">
              <mxPoint x="45" y="510" />
              <mxPoint x="45" y="240" />
            </Array>
          </mxGeometry>
        </mxCell>
        <mxCell id="rWrGN3gHzVz8Coaauby0-57" value="" style="rounded=0;whiteSpace=wrap;html=1;" parent="1" vertex="1">
          <mxGeometry x="130.07" y="500" width="29.93" height="20" as="geometry" />
        </mxCell>
        <mxCell id="rWrGN3gHzVz8Coaauby0-61" value="&lt;span style=&quot;font-size: 11px;&quot;&gt;Статус доставки&lt;/span&gt;" style="rounded=0;whiteSpace=wrap;html=1;strokeWidth=2;" parent="1" vertex="1">
          <mxGeometry x="540" y="570" width="100" height="20" as="geometry" />
        </mxCell>
        <mxCell id="rWrGN3gHzVz8Coaauby0-83" value="" style="rounded=0;whiteSpace=wrap;html=1;" parent="1" vertex="1">
          <mxGeometry x="502.03" y="500" width="27.97" height="20" as="geometry" />
        </mxCell>
        <mxCell id="uTUmELYXSPTPNxnE2Mq3-1" value="" style="rounded=0;whiteSpace=wrap;html=1;fillColor=#e6d0de;strokeColor=#996185;strokeWidth=2;gradientColor=#d5739d;" parent="1" vertex="1">
          <mxGeometry x="220.01000000000002" y="280" width="34.95" height="30" as="geometry" />
        </mxCell>
        <mxCell id="uTUmELYXSPTPNxnE2Mq3-3" value="" style="rounded=0;whiteSpace=wrap;html=1;strokeColor=#0A0300;strokeWidth=2;" parent="1" vertex="1">
          <mxGeometry x="130" y="280" width="30" height="30" as="geometry" />
        </mxCell>
        <mxCell id="uTUmELYXSPTPNxnE2Mq3-4" value="" style="rounded=0;whiteSpace=wrap;html=1;strokeColor=#0A0300;strokeWidth=2;" parent="1" vertex="1">
          <mxGeometry x="160" y="280" width="30" height="30" as="geometry" />
        </mxCell>
        <mxCell id="uTUmELYXSPTPNxnE2Mq3-56" style="edgeStyle=orthogonalEdgeStyle;rounded=0;orthogonalLoop=1;jettySize=auto;html=1;entryX=1;entryY=0.5;entryDx=0;entryDy=0;fillColor=#0050ef;strokeColor=#0A0300;strokeWidth=2;" parent="1" source="uTUmELYXSPTPNxnE2Mq3-7" target="uTUmELYXSPTPNxnE2Mq3-1" edge="1">
          <mxGeometry relative="1" as="geometry">
            <Array as="points">
              <mxPoint x="320" y="295" />
            </Array>
          </mxGeometry>
        </mxCell>
        <mxCell id="uTUmELYXSPTPNxnE2Mq3-7" value="Выход в меню профиля" style="rounded=0;whiteSpace=wrap;html=1;fillColor=#e6d0de;strokeColor=#996185;gradientColor=#d5739d;" parent="1" vertex="1">
          <mxGeometry x="269.93" y="350" width="100.07" height="50" as="geometry" />
        </mxCell>
        <mxCell id="uTUmELYXSPTPNxnE2Mq3-8" value="&lt;b&gt;№1. Меню профиля&lt;/b&gt;" style="rounded=0;whiteSpace=wrap;html=1;fillColor=#fff2cc;strokeColor=#d6b656;strokeWidth=2;gradientColor=#ffd966;" parent="1" vertex="1">
          <mxGeometry x="134.95999999999998" y="10" width="120" height="30" as="geometry" />
        </mxCell>
        <mxCell id="uTUmELYXSPTPNxnE2Mq3-49" style="edgeStyle=orthogonalEdgeStyle;rounded=0;orthogonalLoop=1;jettySize=auto;html=1;entryX=0;entryY=0.75;entryDx=0;entryDy=0;" parent="1" source="uTUmELYXSPTPNxnE2Mq3-10" target="uTUmELYXSPTPNxnE2Mq3-3" edge="1">
          <mxGeometry relative="1" as="geometry">
            <Array as="points">
              <mxPoint x="100" y="303" />
            </Array>
          </mxGeometry>
        </mxCell>
        <mxCell id="uTUmELYXSPTPNxnE2Mq3-10" value="Главное&amp;nbsp;&lt;div&gt;меню WB&lt;/div&gt;" style="rounded=0;whiteSpace=wrap;html=1;" parent="1" vertex="1">
          <mxGeometry x="70" y="350" width="63.91" height="50" as="geometry" />
        </mxCell>
        <mxCell id="uTUmELYXSPTPNxnE2Mq3-15" value="" style="edgeStyle=orthogonalEdgeStyle;rounded=0;orthogonalLoop=1;jettySize=auto;html=1;entryX=0.25;entryY=1;entryDx=0;entryDy=0;" parent="1" source="uTUmELYXSPTPNxnE2Mq3-11" edge="1">
          <mxGeometry relative="1" as="geometry">
            <mxPoint x="208.76250000000005" y="310" as="targetPoint" />
            <Array as="points">
              <mxPoint x="231" y="330" />
              <mxPoint x="209" y="330" />
            </Array>
          </mxGeometry>
        </mxCell>
        <mxCell id="uTUmELYXSPTPNxnE2Mq3-11" value="Корзина" style="rounded=0;whiteSpace=wrap;html=1;direction=south;" parent="1" vertex="1">
          <mxGeometry x="200" y="348.12" width="60.63" height="51.88" as="geometry" />
        </mxCell>
        <mxCell id="uTUmELYXSPTPNxnE2Mq3-50" style="edgeStyle=orthogonalEdgeStyle;rounded=0;orthogonalLoop=1;jettySize=auto;html=1;entryX=0.5;entryY=1;entryDx=0;entryDy=0;" parent="1" source="uTUmELYXSPTPNxnE2Mq3-12" target="uTUmELYXSPTPNxnE2Mq3-4" edge="1">
          <mxGeometry relative="1" as="geometry" />
        </mxCell>
        <mxCell id="uTUmELYXSPTPNxnE2Mq3-12" value="Поиск" style="rounded=0;whiteSpace=wrap;html=1;" parent="1" vertex="1">
          <mxGeometry x="136.25" y="350" width="57.5" height="50" as="geometry" />
        </mxCell>
        <mxCell id="uTUmELYXSPTPNxnE2Mq3-28" value="" style="rounded=0;whiteSpace=wrap;html=1;strokeColor=#0A0300;strokeWidth=2;" parent="1" vertex="1">
          <mxGeometry x="190" y="280" width="30" height="30" as="geometry" />
        </mxCell>
        <mxCell id="uTUmELYXSPTPNxnE2Mq3-45" value="Уведомления" style="rounded=0;whiteSpace=wrap;html=1;" parent="1" vertex="1">
          <mxGeometry x="290.61" y="60" width="79.39" height="30" as="geometry" />
        </mxCell>
        <mxCell id="uTUmELYXSPTPNxnE2Mq3-46" value="Доставки&amp;nbsp;&lt;div&gt;по дате&lt;/div&gt;" style="rounded=0;whiteSpace=wrap;html=1;fillColor=#d5e8d4;strokeColor=#82b366;strokeWidth=4;align=left;gradientColor=#97d077;" parent="1" vertex="1">
          <mxGeometry x="120" y="142.5" width="70" height="37.5" as="geometry" />
        </mxCell>
        <mxCell id="uTUmELYXSPTPNxnE2Mq3-57" style="edgeStyle=orthogonalEdgeStyle;rounded=0;orthogonalLoop=1;jettySize=auto;html=1;entryX=0.199;entryY=1.019;entryDx=0;entryDy=0;entryPerimeter=0;strokeWidth=3;strokeColor=#82b366;fillColor=#d5e8d4;" parent="1" target="rWrGN3gHzVz8Coaauby0-7" edge="1">
          <mxGeometry relative="1" as="geometry">
            <mxPoint x="110" y="170" as="sourcePoint" />
            <Array as="points">
              <mxPoint x="117" y="170" />
              <mxPoint x="117" y="171" />
              <mxPoint x="20" y="171" />
              <mxPoint x="20" y="544" />
            </Array>
          </mxGeometry>
        </mxCell>
        <mxCell id="uTUmELYXSPTPNxnE2Mq3-59" value="" style="rounded=0;whiteSpace=wrap;html=1;fillColor=#FFFF99;" parent="1" vertex="1">
          <mxGeometry x="128.82" y="540" width="149.93" height="110" as="geometry" />
        </mxCell>
        <mxCell id="uTUmELYXSPTPNxnE2Mq3-60" value="" style="rounded=0;whiteSpace=wrap;html=1;" parent="1" vertex="1">
          <mxGeometry x="128.82" y="650" width="149.93" height="70" as="geometry" />
        </mxCell>
        <mxCell id="uTUmELYXSPTPNxnE2Mq3-62" value="" style="rounded=0;whiteSpace=wrap;html=1;strokeWidth=2;strokeColor=#0A0300;" parent="1" vertex="1">
          <mxGeometry x="195.68" y="720" width="30" height="30" as="geometry" />
        </mxCell>
        <mxCell id="uTUmELYXSPTPNxnE2Mq3-63" value="" style="rounded=0;whiteSpace=wrap;html=1;strokeColor=#0A0300;strokeWidth=2;" parent="1" vertex="1">
          <mxGeometry x="165.05" y="720" width="30" height="30" as="geometry" />
        </mxCell>
        <mxCell id="uTUmELYXSPTPNxnE2Mq3-64" value="" style="rounded=0;whiteSpace=wrap;html=1;strokeColor=#0A0300;strokeWidth=2;" parent="1" vertex="1">
          <mxGeometry x="133.91" y="720" width="30" height="30" as="geometry" />
        </mxCell>
        <mxCell id="uTUmELYXSPTPNxnE2Mq3-65" value="" style="rounded=0;whiteSpace=wrap;html=1;fillColor=#e6d0de;strokeColor=#996185;strokeWidth=2;gradientColor=#d5739d;" parent="1" vertex="1">
          <mxGeometry x="225.05" y="720" width="34.95" height="30" as="geometry" />
        </mxCell>
        <mxCell id="uTUmELYXSPTPNxnE2Mq3-72" value="&lt;b&gt;№2. Группировка товаров с доставкой в определенную дату&lt;/b&gt;" style="rounded=0;whiteSpace=wrap;html=1;fillColor=#fff2cc;strokeColor=#d6b656;strokeWidth=2;gradientColor=#ffd966;" parent="1" vertex="1">
          <mxGeometry x="120" y="430" width="170.61" height="50" as="geometry" />
        </mxCell>
        <mxCell id="uTUmELYXSPTPNxnE2Mq3-73" value="&lt;font style=&quot;font-size: 10px;&quot;&gt;Дата доставки 14 октября&lt;/font&gt;" style="rounded=0;whiteSpace=wrap;html=1;fillColor=#d5e8d4;strokeColor=#82b366;strokeWidth=4;gradientColor=#97d077;" parent="1" vertex="1">
          <mxGeometry x="136.25" y="545" width="133.75" height="20" as="geometry" />
        </mxCell>
        <mxCell id="uTUmELYXSPTPNxnE2Mq3-74" value="&lt;font style=&quot;font-size: 10px;&quot;&gt;Дата доставки 15 октября&lt;/font&gt;" style="rounded=0;whiteSpace=wrap;html=1;" parent="1" vertex="1">
          <mxGeometry x="137.04" y="650" width="133.75" height="20" as="geometry" />
        </mxCell>
        <mxCell id="uTUmELYXSPTPNxnE2Mq3-75" value="Т1" style="rounded=0;whiteSpace=wrap;html=1;" parent="1" vertex="1">
          <mxGeometry x="137.9" y="675" width="20.07" height="20" as="geometry" />
        </mxCell>
        <mxCell id="uTUmELYXSPTPNxnE2Mq3-76" value="Т3" style="rounded=0;whiteSpace=wrap;html=1;strokeWidth=1;" parent="1" vertex="1">
          <mxGeometry x="200.64999999999998" y="572" width="20.07" height="25" as="geometry" />
        </mxCell>
        <mxCell id="uTUmELYXSPTPNxnE2Mq3-84" value="Т2" style="rounded=0;whiteSpace=wrap;html=1;" parent="1" vertex="1">
          <mxGeometry x="169.89999999999998" y="675" width="20.07" height="20" as="geometry" />
        </mxCell>
        <mxCell id="uTUmELYXSPTPNxnE2Mq3-86" value="" style="rounded=0;whiteSpace=wrap;html=1;strokeColor=#0A0300;strokeWidth=2;" parent="1" vertex="1">
          <mxGeometry x="567.99" y="720" width="30" height="30" as="geometry" />
        </mxCell>
        <mxCell id="uTUmELYXSPTPNxnE2Mq3-87" value="" style="rounded=0;whiteSpace=wrap;html=1;strokeColor=#3333FF;strokeWidth=2;" parent="1" vertex="1">
          <mxGeometry x="537.99" y="720" width="30" height="30" as="geometry" />
        </mxCell>
        <mxCell id="uTUmELYXSPTPNxnE2Mq3-88" value="" style="rounded=0;whiteSpace=wrap;html=1;strokeWidth=2;strokeColor=#0A0300;" parent="1" vertex="1">
          <mxGeometry x="507.99" y="720" width="30" height="30" as="geometry" />
        </mxCell>
        <mxCell id="uTUmELYXSPTPNxnE2Mq3-90" value="" style="rounded=0;whiteSpace=wrap;html=1;fillColor=#e6d0de;strokeColor=#996185;strokeWidth=2;gradientColor=#d5739d;" parent="1" vertex="1">
          <mxGeometry x="597.99" y="720" width="34.95" height="30" as="geometry" />
        </mxCell>
        <mxCell id="uTUmELYXSPTPNxnE2Mq3-93" style="edgeStyle=orthogonalEdgeStyle;rounded=0;orthogonalLoop=1;jettySize=auto;html=1;strokeColor=#82B366;strokeWidth=3;fillColor=#d5e8d4;exitX=1;exitY=0.75;exitDx=0;exitDy=0;" parent="1" source="uTUmELYXSPTPNxnE2Mq3-73" edge="1">
          <mxGeometry relative="1" as="geometry">
            <mxPoint x="490" y="560" as="targetPoint" />
          </mxGeometry>
        </mxCell>
        <mxCell id="B9fNRetj1TYvKwLtEVBe-2" value="Основной сценарий" style="edgeLabel;html=1;align=center;verticalAlign=middle;resizable=0;points=[];" parent="uTUmELYXSPTPNxnE2Mq3-93" vertex="1" connectable="0">
          <mxGeometry x="0.043" y="-2" relative="1" as="geometry">
            <mxPoint x="-4" y="8" as="offset" />
          </mxGeometry>
        </mxCell>
        <mxCell id="uTUmELYXSPTPNxnE2Mq3-100" value="&lt;font style=&quot;font-size: 11px;&quot;&gt;Статус доставки&lt;/font&gt;" style="rounded=0;whiteSpace=wrap;html=1;fillColor=#d5e8d4;strokeColor=#82b366;strokeWidth=4;gradientColor=#97d077;" parent="1" vertex="1">
          <mxGeometry x="540" y="670" width="100" height="20" as="geometry" />
        </mxCell>
        <mxCell id="uTUmELYXSPTPNxnE2Mq3-103" value="Отм&lt;span style=&quot;color: rgba(0, 0, 0, 0); font-family: monospace; font-size: 0px; text-align: start; text-wrap: nowrap;&quot;&gt;%3CmxGraphModel%3E%3Croot%3E%3CmxCell%20id%3D%220%22%2F%3E%3CmxCell%20id%3D%221%22%20parent%3D%220%22%2F%3E%3CmxCell%20id%3D%222%22%20value%3D%22%D0%A1%D1%82%D0%B0%D1%82%D1%83%D1%81%22%20style%3D%22rounded%3D0%3BwhiteSpace%3Dwrap%3Bhtml%3D1%3B%22%20vertex%3D%221%22%20parent%3D%221%22%3E%3CmxGeometry%20x%3D%22549.99%22%20y%3D%22570%22%20width%3D%2252.01%22%20height%3D%2220%22%20as%3D%22geometry%22%2F%3E%3C%2FmxCell%3E%3C%2Froot%3E%3C%2FmxGraphModel%3E&lt;/span&gt;&lt;span style=&quot;color: rgba(0, 0, 0, 0); font-family: monospace; font-size: 0px; text-align: start; text-wrap: nowrap;&quot;&gt;%3CmxGraphModel%3E%3Croot%3E%3CmxCell%20id%3D%220%22%2F%3E%3CmxCell%20id%3D%221%22%20parent%3D%220%22%2F%3E%3CmxCell%20id%3D%222%22%20value%3D%22%D0%A1%D1%82%D0%B0%D1%82%D1%83%D1%81%22%20style%3D%22rounded%3D0%3BwhiteSpace%3Dwrap%3Bhtml%3D1%3B%22%20vertex%3D%221%22%20parent%3D%221%22%3E%3CmxGeometry%20x%3D%22549.99%22%20y%3D%22570%22%20width%3D%2252.01%22%20height%3D%2220%22%20as%3D%22geometry%22%2F%3E%3C%2FmxCell%3E%3C%2Froot%3E%3C%2FmxGraphModel%3E&lt;/span&gt;ена" style="rounded=0;whiteSpace=wrap;html=1;" parent="1" vertex="1">
          <mxGeometry x="540" y="690" width="100" height="20" as="geometry" />
        </mxCell>
        <mxCell id="uTUmELYXSPTPNxnE2Mq3-109" value="&lt;b&gt;№3. Статус доставки отдельно по товарам в определенную дату и кнопка &quot;Отмена&quot;&lt;/b&gt;" style="rounded=0;whiteSpace=wrap;html=1;fillColor=#fff2cc;strokeColor=#d6b656;strokeWidth=2;gradientColor=#ffd966;" parent="1" vertex="1">
          <mxGeometry x="480" y="420" width="170" height="60" as="geometry" />
        </mxCell>
        <mxCell id="nevb3saH_B1YmjPPsue9-5" value="&lt;font style=&quot;font-size: 10px;&quot;&gt;Дата доставки 14 октября&lt;/font&gt;" style="rounded=0;whiteSpace=wrap;html=1;fillColor=#d5e8d4;strokeColor=#82b366;strokeWidth=4;gradientColor=#97d077;" parent="1" vertex="1">
          <mxGeometry x="499.19" y="545" width="140.81" height="20" as="geometry" />
        </mxCell>
        <mxCell id="nevb3saH_B1YmjPPsue9-7" style="edgeStyle=orthogonalEdgeStyle;rounded=0;orthogonalLoop=1;jettySize=auto;html=1;" parent="1" source="uTUmELYXSPTPNxnE2Mq3-45" edge="1">
          <mxGeometry relative="1" as="geometry">
            <mxPoint x="260" y="70" as="targetPoint" />
            <Array as="points">
              <mxPoint x="340" y="70" />
              <mxPoint x="260" y="70" />
            </Array>
          </mxGeometry>
        </mxCell>
        <mxCell id="nevb3saH_B1YmjPPsue9-17" value="Отм&lt;span style=&quot;color: rgba(0, 0, 0, 0); font-family: monospace; font-size: 0px; text-align: start; text-wrap: nowrap;&quot;&gt;%3CmxGraphModel%3E%3Croot%3E%3CmxCell%20id%3D%220%22%2F%3E%3CmxCell%20id%3D%221%22%20parent%3D%220%22%2F%3E%3CmxCell%20id%3D%222%22%20value%3D%22%D0%A1%D1%82%D0%B0%D1%82%D1%83%D1%81%22%20style%3D%22rounded%3D0%3BwhiteSpace%3Dwrap%3Bhtml%3D1%3B%22%20vertex%3D%221%22%20parent%3D%221%22%3E%3CmxGeometry%20x%3D%22549.99%22%20y%3D%22570%22%20width%3D%2252.01%22%20height%3D%2220%22%20as%3D%22geometry%22%2F%3E%3C%2FmxCell%3E%3C%2Froot%3E%3C%2FmxGraphModel%3E&lt;/span&gt;&lt;span style=&quot;color: rgba(0, 0, 0, 0); font-family: monospace; font-size: 0px; text-align: start; text-wrap: nowrap;&quot;&gt;%3CmxGraphModel%3E%3Croot%3E%3CmxCell%20id%3D%220%22%2F%3E%3CmxCell%20id%3D%221%22%20parent%3D%220%22%2F%3E%3CmxCell%20id%3D%222%22%20value%3D%22%D0%A1%D1%82%D0%B0%D1%82%D1%83%D1%81%22%20style%3D%22rounded%3D0%3BwhiteSpace%3Dwrap%3Bhtml%3D1%3B%22%20vertex%3D%221%22%20parent%3D%221%22%3E%3CmxGeometry%20x%3D%22549.99%22%20y%3D%22570%22%20width%3D%2252.01%22%20height%3D%2220%22%20as%3D%22geometry%22%2F%3E%3C%2FmxCell%3E%3C%2Froot%3E%3C%2FmxGraphModel%3E&lt;/span&gt;ена" style="rounded=0;whiteSpace=wrap;html=1;fillColor=#f8cecc;strokeColor=#FF3333;strokeWidth=3;gradientColor=#ea6b66;" parent="1" vertex="1">
          <mxGeometry x="540" y="590" width="100" height="20" as="geometry" />
        </mxCell>
        <mxCell id="nevb3saH_B1YmjPPsue9-18" value="Отм&lt;span style=&quot;color: rgba(0, 0, 0, 0); font-family: monospace; font-size: 0px; text-align: start; text-wrap: nowrap;&quot;&gt;%3CmxGraphModel%3E%3Croot%3E%3CmxCell%20id%3D%220%22%2F%3E%3CmxCell%20id%3D%221%22%20parent%3D%220%22%2F%3E%3CmxCell%20id%3D%222%22%20value%3D%22%D0%A1%D1%82%D0%B0%D1%82%D1%83%D1%81%22%20style%3D%22rounded%3D0%3BwhiteSpace%3Dwrap%3Bhtml%3D1%3B%22%20vertex%3D%221%22%20parent%3D%221%22%3E%3CmxGeometry%20x%3D%22549.99%22%20y%3D%22570%22%20width%3D%2252.01%22%20height%3D%2220%22%20as%3D%22geometry%22%2F%3E%3C%2FmxCell%3E%3C%2Froot%3E%3C%2FmxGraphModel%3E&lt;/span&gt;&lt;span style=&quot;color: rgba(0, 0, 0, 0); font-family: monospace; font-size: 0px; text-align: start; text-wrap: nowrap;&quot;&gt;%3CmxGraphModel%3E%3Croot%3E%3CmxCell%20id%3D%220%22%2F%3E%3CmxCell%20id%3D%221%22%20parent%3D%220%22%2F%3E%3CmxCell%20id%3D%222%22%20value%3D%22%D0%A1%D1%82%D0%B0%D1%82%D1%83%D1%81%22%20style%3D%22rounded%3D0%3BwhiteSpace%3Dwrap%3Bhtml%3D1%3B%22%20vertex%3D%221%22%20parent%3D%221%22%3E%3CmxGeometry%20x%3D%22549.99%22%20y%3D%22570%22%20width%3D%2252.01%22%20height%3D%2220%22%20as%3D%22geometry%22%2F%3E%3C%2FmxCell%3E%3C%2Froot%3E%3C%2FmxGraphModel%3E&lt;/span&gt;ена" style="rounded=0;whiteSpace=wrap;html=1;" parent="1" vertex="1">
          <mxGeometry x="540" y="640" width="100" height="20" as="geometry" />
        </mxCell>
        <mxCell id="nevb3saH_B1YmjPPsue9-20" value="&lt;span style=&quot;font-size: 11px;&quot;&gt;Статус доставки&lt;/span&gt;" style="rounded=0;whiteSpace=wrap;html=1;strokeWidth=1;" parent="1" vertex="1">
          <mxGeometry x="540" y="620" width="100" height="20" as="geometry" />
        </mxCell>
        <mxCell id="nevb3saH_B1YmjPPsue9-23" value="Т1" style="rounded=0;whiteSpace=wrap;html=1;strokeColor=#0A0300;strokeWidth=1;" parent="1" vertex="1">
          <mxGeometry x="499.6" y="572.5" width="32.82" height="40" as="geometry" />
        </mxCell>
        <mxCell id="nevb3saH_B1YmjPPsue9-24" value="Т2" style="rounded=0;whiteSpace=wrap;html=1;strokeColor=#0A0300;strokeWidth=1;" parent="1" vertex="1">
          <mxGeometry x="499.6" y="620" width="32.82" height="40" as="geometry" />
        </mxCell>
        <mxCell id="nevb3saH_B1YmjPPsue9-25" value="Т3" style="rounded=0;whiteSpace=wrap;html=1;strokeColor=#0A0300;strokeWidth=1;" parent="1" vertex="1">
          <mxGeometry x="499.19" y="670" width="30.81" height="40" as="geometry" />
        </mxCell>
        <mxCell id="nevb3saH_B1YmjPPsue9-30" style="edgeStyle=orthogonalEdgeStyle;rounded=0;orthogonalLoop=1;jettySize=auto;html=1;fillColor=#f0a30a;strokeColor=#0A0300;strokeWidth=2;" parent="1" source="rWrGN3gHzVz8Coaauby0-83" edge="1">
          <mxGeometry relative="1" as="geometry">
            <mxPoint x="290" y="530" as="targetPoint" />
            <Array as="points">
              <mxPoint x="516" y="530" />
              <mxPoint x="290" y="530" />
            </Array>
          </mxGeometry>
        </mxCell>
        <mxCell id="nevb3saH_B1YmjPPsue9-73" value="" style="rounded=1;whiteSpace=wrap;html=1;" parent="1" vertex="1">
          <mxGeometry x="506.01" y="840" width="130" height="215" as="geometry" />
        </mxCell>
        <mxCell id="nevb3saH_B1YmjPPsue9-75" value="" style="line;strokeWidth=4;direction=south;html=1;perimeter=backbonePerimeter;points=[];outlineConnect=0;" parent="1" vertex="1">
          <mxGeometry x="526.01" y="877.5" width="10" height="160" as="geometry" />
        </mxCell>
        <mxCell id="nevb3saH_B1YmjPPsue9-77" value="Ожидает выдачи до 17 октября (адрес 1)" style="rounded=0;whiteSpace=wrap;html=1;fontSize=10;fillColor=#d5e8d4;strokeColor=#0A0300;" parent="1" vertex="1">
          <mxGeometry x="549.99" y="877.5" width="73.05" height="50" as="geometry" />
        </mxCell>
        <mxCell id="nevb3saH_B1YmjPPsue9-78" value="В пути" style="rounded=0;whiteSpace=wrap;html=1;fontSize=10;" parent="1" vertex="1">
          <mxGeometry x="549.99" y="932.5" width="73.05" height="30" as="geometry" />
        </mxCell>
        <mxCell id="nevb3saH_B1YmjPPsue9-79" value="&lt;font style=&quot;font-size: 11px;&quot;&gt;Собирается&lt;/font&gt;" style="rounded=0;whiteSpace=wrap;html=1;fontSize=10;" parent="1" vertex="1">
          <mxGeometry x="549.99" y="970" width="73.05" height="30" as="geometry" />
        </mxCell>
        <mxCell id="nevb3saH_B1YmjPPsue9-80" value="&lt;font style=&quot;font-size: 11px;&quot;&gt;Принят&lt;/font&gt;" style="rounded=0;whiteSpace=wrap;html=1;fontSize=10;" parent="1" vertex="1">
          <mxGeometry x="549.99" y="1007.5" width="73.05" height="30" as="geometry" />
        </mxCell>
        <mxCell id="nevb3saH_B1YmjPPsue9-92" value="" style="rounded=0;whiteSpace=wrap;html=1;" parent="1" vertex="1">
          <mxGeometry x="519.99" y="850" width="30" height="20" as="geometry" />
        </mxCell>
        <mxCell id="nevb3saH_B1YmjPPsue9-98" style="edgeStyle=orthogonalEdgeStyle;rounded=0;orthogonalLoop=1;jettySize=auto;html=1;strokeWidth=4;strokeColor=#82B366;" parent="1" source="uTUmELYXSPTPNxnE2Mq3-100" edge="1">
          <mxGeometry relative="1" as="geometry">
            <Array as="points">
              <mxPoint x="700" y="685" />
              <mxPoint x="700" y="841" />
            </Array>
            <mxPoint x="650" y="841" as="targetPoint" />
          </mxGeometry>
        </mxCell>
        <mxCell id="Fezao7reDhcHQFRqTaPX-1" value="&lt;p class=&quot;MsoNormal&quot; style=&quot;&quot;&gt;&lt;font style=&quot;font-size: 14px;&quot;&gt;Я как пользователь Wildberiess хочу,&amp;nbsp;&lt;/font&gt;&lt;/p&gt;&lt;p class=&quot;MsoNormal&quot; style=&quot;&quot;&gt;&lt;span style=&quot;font-size: 14px; background-color: initial;&quot;&gt;чтобы во вкладке&amp;nbsp;&lt;/span&gt;&lt;span style=&quot;font-size: 14px; background-color: initial;&quot;&gt;Доставки, заказанные мной&amp;nbsp;товары группировались по датам доставки,&amp;nbsp;&lt;/span&gt;&lt;/p&gt;&lt;p class=&quot;MsoNormal&quot; style=&quot;&quot;&gt;&lt;span style=&quot;font-size: 14px; background-color: initial;&quot;&gt;чтобы знать&amp;nbsp;&lt;/span&gt;&lt;span style=&quot;font-size: 14px; background-color: initial;&quot;&gt;какие товары привезут в определенную дату.&lt;/span&gt;&lt;/p&gt;" style="rounded=1;whiteSpace=wrap;html=1;fillColor=#e1d5e7;strokeColor=#7F00FF;strokeWidth=4;align=left;" parent="1" vertex="1">
          <mxGeometry x="410" y="40" width="280" height="190" as="geometry" />
        </mxCell>
        <mxCell id="Fezao7reDhcHQFRqTaPX-2" value="&lt;b&gt;USER STORY&lt;/b&gt;" style="rounded=1;whiteSpace=wrap;html=1;fillColor=#e1d5e7;strokeColor=#9933FF;strokeWidth=4;" parent="1" vertex="1">
          <mxGeometry x="490" y="10" width="100" height="30" as="geometry" />
        </mxCell>
        <mxCell id="Fezao7reDhcHQFRqTaPX-3" value="" style="image;html=1;image=img/lib/clip_art/finance/Shopping_Cart_128x128.png" parent="1" vertex="1">
          <mxGeometry x="190.03" y="285" width="30" height="20" as="geometry" />
        </mxCell>
        <mxCell id="Fezao7reDhcHQFRqTaPX-6" value="" style="image;html=1;image=img/lib/clip_art/finance/Shopping_Cart_128x128.png" parent="1" vertex="1">
          <mxGeometry x="567.99" y="725" width="30" height="20" as="geometry" />
        </mxCell>
        <mxCell id="Fezao7reDhcHQFRqTaPX-7" value="" style="image;html=1;image=img/lib/clip_art/finance/Shopping_Cart_128x128.png;imageBackground=default;imageBorder=none;" parent="1" vertex="1">
          <mxGeometry x="200" y="725" width="23.75" height="20" as="geometry" />
        </mxCell>
        <mxCell id="Fezao7reDhcHQFRqTaPX-10" value="" style="shadow=0;dashed=0;html=1;strokeColor=#0A0300;fillColor=#4495D1;labelPosition=center;verticalLabelPosition=bottom;verticalAlign=top;align=center;outlineConnect=0;shape=mxgraph.veeam.magnifying_glass;pointerEvents=1;strokeWidth=1;" parent="1" vertex="1">
          <mxGeometry x="165" y="285" width="20" height="20" as="geometry" />
        </mxCell>
        <mxCell id="Fezao7reDhcHQFRqTaPX-11" value="" style="shadow=0;dashed=0;html=1;strokeColor=none;fillColor=#0A0300;labelPosition=center;verticalLabelPosition=bottom;verticalAlign=top;align=center;outlineConnect=0;shape=mxgraph.veeam.magnifying_glass;pointerEvents=1;" parent="1" vertex="1">
          <mxGeometry x="542.99" y="725" width="20" height="20" as="geometry" />
        </mxCell>
        <mxCell id="Fezao7reDhcHQFRqTaPX-12" value="" style="shadow=0;dashed=0;html=1;strokeColor=none;fillColor=#0A0300;labelPosition=center;verticalLabelPosition=bottom;verticalAlign=top;align=center;outlineConnect=0;shape=mxgraph.veeam.magnifying_glass;pointerEvents=1;" parent="1" vertex="1">
          <mxGeometry x="170" y="725" width="20" height="20" as="geometry" />
        </mxCell>
        <mxCell id="Fezao7reDhcHQFRqTaPX-13" value="" style="html=1;verticalLabelPosition=bottom;align=center;labelBackgroundColor=#ffffff;verticalAlign=top;strokeWidth=2;strokeColor=#0A0300;shadow=0;dashed=0;shape=mxgraph.ios7.icons.home;" parent="1" vertex="1">
          <mxGeometry x="134" y="285" width="22" height="20" as="geometry" />
        </mxCell>
        <mxCell id="Fezao7reDhcHQFRqTaPX-14" value="" style="html=1;verticalLabelPosition=bottom;align=center;labelBackgroundColor=#ffffff;verticalAlign=top;strokeWidth=2;strokeColor=#0A0300;shadow=0;dashed=0;shape=mxgraph.ios7.icons.home;" parent="1" vertex="1">
          <mxGeometry x="511.99" y="725" width="22" height="20" as="geometry" />
        </mxCell>
        <mxCell id="Fezao7reDhcHQFRqTaPX-15" value="" style="html=1;verticalLabelPosition=bottom;align=center;labelBackgroundColor=#ffffff;verticalAlign=top;strokeWidth=2;strokeColor=#0A0300;shadow=0;dashed=0;shape=mxgraph.ios7.icons.home;" parent="1" vertex="1">
          <mxGeometry x="136.94" y="725" width="22" height="20" as="geometry" />
        </mxCell>
        <mxCell id="Fezao7reDhcHQFRqTaPX-16" value="" style="verticalLabelPosition=bottom;html=1;verticalAlign=top;align=center;strokeColor=none;fillColor=#7F00FF;shape=mxgraph.azure.user;" parent="1" vertex="1">
          <mxGeometry x="224.74" y="285" width="25.5" height="20" as="geometry" />
        </mxCell>
        <mxCell id="Fezao7reDhcHQFRqTaPX-17" value="" style="verticalLabelPosition=bottom;html=1;verticalAlign=top;align=center;strokeColor=none;fillColor=#7F00FF;shape=mxgraph.azure.user;" parent="1" vertex="1">
          <mxGeometry x="602.71" y="725" width="25.5" height="20" as="geometry" />
        </mxCell>
        <mxCell id="Fezao7reDhcHQFRqTaPX-18" value="" style="verticalLabelPosition=bottom;html=1;verticalAlign=top;align=center;strokeColor=none;fillColor=#7F00FF;shape=mxgraph.azure.user;" parent="1" vertex="1">
          <mxGeometry x="230" y="725" width="25.5" height="20" as="geometry" />
        </mxCell>
        <mxCell id="Fezao7reDhcHQFRqTaPX-22" value="" style="rounded=0;whiteSpace=wrap;html=1;" parent="1" vertex="1">
          <mxGeometry x="512.99" y="887.5" width="30" height="20" as="geometry" />
        </mxCell>
        <mxCell id="Fezao7reDhcHQFRqTaPX-23" value="" style="shape=mxgraph.signs.transportation.truck_1;html=1;pointerEvents=1;fillColor=#000000;strokeColor=none;verticalLabelPosition=bottom;verticalAlign=top;align=center;" parent="1" vertex="1">
          <mxGeometry x="515.74" y="887.5" width="22.25" height="20" as="geometry" />
        </mxCell>
        <mxCell id="Fezao7reDhcHQFRqTaPX-25" value="&lt;span style=&quot;font-size: 11px;&quot;&gt;Статус доставки: В пути&lt;/span&gt;" style="rounded=0;whiteSpace=wrap;html=1;" parent="1" vertex="1">
          <mxGeometry x="133.78" y="700" width="140" height="20" as="geometry" />
        </mxCell>
        <mxCell id="Fezao7reDhcHQFRqTaPX-27" value="" style="shape=singleArrow;direction=west;whiteSpace=wrap;html=1;" parent="1" vertex="1">
          <mxGeometry x="524.0899999999999" y="855" width="21.8" height="10" as="geometry" />
        </mxCell>
        <mxCell id="Fezao7reDhcHQFRqTaPX-28" value="" style="shape=singleArrow;direction=west;whiteSpace=wrap;html=1;" parent="1" vertex="1">
          <mxGeometry x="133.90999999999997" y="505" width="20" height="10" as="geometry" />
        </mxCell>
        <mxCell id="Fezao7reDhcHQFRqTaPX-29" value="" style="shape=singleArrow;direction=west;whiteSpace=wrap;html=1;" parent="1" vertex="1">
          <mxGeometry x="506.01000000000005" y="505" width="20" height="10" as="geometry" />
        </mxCell>
        <mxCell id="Fezao7reDhcHQFRqTaPX-30" value="" style="html=1;verticalLabelPosition=bottom;align=center;labelBackgroundColor=#ffffff;verticalAlign=top;strokeWidth=2;strokeColor=#0A0300;shadow=0;dashed=0;shape=mxgraph.ios7.icons.bell;" parent="1" vertex="1">
          <mxGeometry x="233" y="63.45" width="24" height="23.099999999999998" as="geometry" />
        </mxCell>
        <mxCell id="Fezao7reDhcHQFRqTaPX-64" value="Т2" style="rounded=0;whiteSpace=wrap;html=1;strokeWidth=1;strokeColor=#0A0300;" parent="1" vertex="1">
          <mxGeometry x="169.9" y="572" width="20.07" height="25" as="geometry" />
        </mxCell>
        <mxCell id="Fezao7reDhcHQFRqTaPX-97" value="" style="rounded=1;whiteSpace=wrap;html=1;rotation=90;strokeWidth=4;fillColor=#BAC8D3;strokeColor=#0A0300;" parent="1" vertex="1">
          <mxGeometry x="717.97" y="545" width="270" height="160" as="geometry" />
        </mxCell>
        <mxCell id="Fezao7reDhcHQFRqTaPX-101" value="Вы действительно хотите отменить доставку Т1?" style="rounded=0;whiteSpace=wrap;html=1;" parent="1" vertex="1">
          <mxGeometry x="788.98" y="554.5" width="125" height="60" as="geometry" />
        </mxCell>
        <mxCell id="Fezao7reDhcHQFRqTaPX-102" value="Отменить" style="rounded=0;whiteSpace=wrap;html=1;fillColor=#f8cecc;strokeColor=#b85450;strokeWidth=3;gradientColor=#ea6b66;" parent="1" vertex="1">
          <mxGeometry x="848.95" y="630" width="61.05" height="30" as="geometry" />
        </mxCell>
        <mxCell id="Fezao7reDhcHQFRqTaPX-106" style="edgeStyle=orthogonalEdgeStyle;rounded=0;orthogonalLoop=1;jettySize=auto;html=1;strokeWidth=2;" parent="1" source="Fezao7reDhcHQFRqTaPX-103" edge="1">
          <mxGeometry relative="1" as="geometry">
            <mxPoint x="650" y="645" as="targetPoint" />
            <Array as="points">
              <mxPoint x="710" y="645" />
              <mxPoint x="710" y="645" />
            </Array>
          </mxGeometry>
        </mxCell>
        <mxCell id="Fezao7reDhcHQFRqTaPX-103" value="Назад" style="rounded=0;whiteSpace=wrap;html=1;" parent="1" vertex="1">
          <mxGeometry x="790" y="630" width="60" height="30" as="geometry" />
        </mxCell>
        <mxCell id="Fezao7reDhcHQFRqTaPX-108" value="&lt;span style=&quot;color: rgba(0, 0, 0, 0); font-family: monospace; font-size: 0px; text-align: start; text-wrap: nowrap;&quot;&gt;%3CmxGraphModel%3E%3Croot%3E%3CmxCell%20id%3D%220%22%2F%3E%3CmxCell%20id%3D%221%22%20parent%3D%220%22%2F%3E%3CmxCell%20id%3D%222%22%20value%3D%22%26lt%3Bfont%20style%3D%26quot%3Bfont-size%3A%209px%3B%26quot%3B%26gt%3B%D0%94%D0%B0%D1%82%D0%B0%20%D0%B4%D0%BE%D1%81%D1%82%D0%B0%D0%B2%D0%BA%D0%B8%3A%2014%20%D0%BE%D0%BA%D1%82%D1%8F%D0%B1%D1%80%D1%8F%26lt%3B%2Ffont%26gt%3B%22%20style%3D%22rounded%3D0%3BwhiteSpace%3Dwrap%3Bhtml%3D1%3BfillColor%3D%23f8cecc%3BstrokeColor%3D%23FF3333%3BstrokeWidth%3D4%3B%22%20vertex%3D%221%22%20parent%3D%221%22%3E%3CmxGeometry%20x%3D%22419.93%22%20y%3D%22160%22%20width%3D%22130.07%22%20height%3D%2220%22%20as%3D%22geometry%22%2F%3E%3C%2FmxCell%3E%3C%2Froot%3E%3C%2FmxGraphModel%3E&lt;/span&gt;" style="rounded=1;whiteSpace=wrap;html=1;rotation=90;strokeWidth=4;" parent="1" vertex="1">
          <mxGeometry x="719.99" y="865" width="270" height="160" as="geometry" />
        </mxCell>
        <mxCell id="Fezao7reDhcHQFRqTaPX-109" value="" style="rounded=0;whiteSpace=wrap;html=1;strokeColor=#0A0300;strokeWidth=2;" parent="1" vertex="1">
          <mxGeometry x="850.07" y="1045" width="30" height="30" as="geometry" />
        </mxCell>
        <mxCell id="Fezao7reDhcHQFRqTaPX-110" value="" style="rounded=0;whiteSpace=wrap;html=1;strokeColor=#0A0300;strokeWidth=2;" parent="1" vertex="1">
          <mxGeometry x="822.51" y="1045" width="30" height="30" as="geometry" />
        </mxCell>
        <mxCell id="Fezao7reDhcHQFRqTaPX-111" value="" style="rounded=0;whiteSpace=wrap;html=1;strokeColor=#0A0300;strokeWidth=2;" parent="1" vertex="1">
          <mxGeometry x="791.86" y="1045" width="30" height="30" as="geometry" />
        </mxCell>
        <mxCell id="Fezao7reDhcHQFRqTaPX-112" value="" style="rounded=0;whiteSpace=wrap;html=1;fillColor=#e6d0de;strokeColor=#996185;strokeWidth=2;gradientColor=#d5739d;" parent="1" vertex="1">
          <mxGeometry x="882.51" y="1045" width="34.95" height="30" as="geometry" />
        </mxCell>
        <mxCell id="Fezao7reDhcHQFRqTaPX-113" value="" style="html=1;verticalLabelPosition=bottom;align=center;labelBackgroundColor=#ffffff;verticalAlign=top;strokeWidth=2;strokeColor=#0A0300;shadow=0;dashed=0;shape=mxgraph.ios7.icons.home;" parent="1" vertex="1">
          <mxGeometry x="795.86" y="1050" width="22" height="20" as="geometry" />
        </mxCell>
        <mxCell id="Fezao7reDhcHQFRqTaPX-115" value="" style="shadow=0;dashed=0;html=1;strokeColor=none;fillColor=#0A0300;labelPosition=center;verticalLabelPosition=bottom;verticalAlign=top;align=center;outlineConnect=0;shape=mxgraph.veeam.magnifying_glass;pointerEvents=1;" parent="1" vertex="1">
          <mxGeometry x="827.51" y="1050" width="20" height="20" as="geometry" />
        </mxCell>
        <mxCell id="Fezao7reDhcHQFRqTaPX-116" value="" style="image;html=1;image=img/lib/clip_art/finance/Shopping_Cart_128x128.png" parent="1" vertex="1">
          <mxGeometry x="852.51" y="1050" width="30" height="20" as="geometry" />
        </mxCell>
        <mxCell id="Fezao7reDhcHQFRqTaPX-120" value="" style="verticalLabelPosition=bottom;html=1;verticalAlign=top;align=center;strokeColor=none;fillColor=#7F00FF;shape=mxgraph.azure.user;" parent="1" vertex="1">
          <mxGeometry x="887.23" y="1050" width="25.5" height="20" as="geometry" />
        </mxCell>
        <mxCell id="aNIDtkYZK-gJsD_tiZYX-11" style="edgeStyle=orthogonalEdgeStyle;rounded=0;orthogonalLoop=1;jettySize=auto;html=1;entryX=0.5;entryY=0;entryDx=0;entryDy=0;strokeWidth=2;" parent="1" source="Fezao7reDhcHQFRqTaPX-121" target="Fezao7reDhcHQFRqTaPX-136" edge="1">
          <mxGeometry relative="1" as="geometry" />
        </mxCell>
        <mxCell id="Fezao7reDhcHQFRqTaPX-121" value="" style="rounded=0;whiteSpace=wrap;html=1;" parent="1" vertex="1">
          <mxGeometry x="788.9799999999999" y="830" width="29.93" height="20" as="geometry" />
        </mxCell>
        <mxCell id="Fezao7reDhcHQFRqTaPX-122" value="" style="shape=singleArrow;direction=west;whiteSpace=wrap;html=1;" parent="1" vertex="1">
          <mxGeometry x="791.86" y="835" width="20" height="10" as="geometry" />
        </mxCell>
        <mxCell id="Fezao7reDhcHQFRqTaPX-124" value="&lt;font style=&quot;font-size: 10px;&quot;&gt;QR-код для получения&lt;/font&gt;" style="rounded=0;whiteSpace=wrap;html=1;" parent="1" vertex="1">
          <mxGeometry x="828.94" y="820" width="48.06" height="40" as="geometry" />
        </mxCell>
        <mxCell id="Fezao7reDhcHQFRqTaPX-125" value="" style="rounded=0;whiteSpace=wrap;html=1;fillColor=#FFFF99;" parent="1" vertex="1">
          <mxGeometry x="780.03" y="865" width="149.93" height="105" as="geometry" />
        </mxCell>
        <mxCell id="Fezao7reDhcHQFRqTaPX-126" value="&lt;font style=&quot;font-size: 10px;&quot;&gt;Дата доставки 14 октября&lt;/font&gt;" style="rounded=0;whiteSpace=wrap;html=1;fillColor=#d5e8d4;strokeColor=#82b366;strokeWidth=4;gradientColor=#97d077;" parent="1" vertex="1">
          <mxGeometry x="788.11" y="870" width="133.75" height="20" as="geometry" />
        </mxCell>
        <mxCell id="Fezao7reDhcHQFRqTaPX-127" value="Т2" style="rounded=0;whiteSpace=wrap;html=1;strokeWidth=1;" parent="1" vertex="1">
          <mxGeometry x="793.9100000000001" y="900" width="20.07" height="25" as="geometry" />
        </mxCell>
        <mxCell id="Fezao7reDhcHQFRqTaPX-129" value="&lt;font style=&quot;font-size: 10px;&quot;&gt;Статус доставки:&amp;nbsp;&lt;/font&gt;&lt;div&gt;&lt;font style=&quot;font-size: 10px;&quot;&gt;Т3 ожидает в ПВ до 17,&lt;/font&gt;&lt;div&gt;&lt;font style=&quot;font-size: 10px;&quot;&gt;Т2 задерживается&lt;/font&gt;&lt;/div&gt;&lt;/div&gt;" style="rounded=0;whiteSpace=wrap;html=1;align=center;fillColor=#dae8fc;gradientColor=#7ea6e0;strokeColor=#6c8ebf;" parent="1" vertex="1">
          <mxGeometry x="784.99" y="927.5" width="140" height="40" as="geometry" />
        </mxCell>
        <mxCell id="Fezao7reDhcHQFRqTaPX-136" value="Выход в меню профиля" style="rounded=0;whiteSpace=wrap;html=1;fillColor=#e6d0de;gradientColor=#d5739d;strokeColor=#996185;" parent="1" vertex="1">
          <mxGeometry x="710" y="917.5" width="50" height="60" as="geometry" />
        </mxCell>
        <mxCell id="6w3ceoJ8kKLCBXU54LmV-1" value="№4" style="rounded=0;whiteSpace=wrap;html=1;fillColor=#fff2cc;gradientColor=#ffd966;strokeColor=#d6b656;" parent="1" vertex="1">
          <mxGeometry x="547.74" y="780" width="50" height="20" as="geometry" />
        </mxCell>
        <mxCell id="6w3ceoJ8kKLCBXU54LmV-5" value="№5" style="rounded=0;whiteSpace=wrap;html=1;fillColor=#fff2cc;gradientColor=#ffd966;strokeColor=#d6b656;" parent="1" vertex="1">
          <mxGeometry x="819.99" y="460" width="50" height="20" as="geometry" />
        </mxCell>
        <mxCell id="6w3ceoJ8kKLCBXU54LmV-10" value="" style="rounded=0;whiteSpace=wrap;html=1;" parent="1" vertex="1">
          <mxGeometry x="780" y="970" width="149.93" height="70" as="geometry" />
        </mxCell>
        <mxCell id="6w3ceoJ8kKLCBXU54LmV-11" value="&lt;font style=&quot;font-size: 10px;&quot;&gt;Дата доставки 15 октября&lt;/font&gt;" style="rounded=0;whiteSpace=wrap;html=1;" parent="1" vertex="1">
          <mxGeometry x="788.09" y="970" width="133.75" height="20" as="geometry" />
        </mxCell>
        <mxCell id="6w3ceoJ8kKLCBXU54LmV-12" value="Т2" style="rounded=0;whiteSpace=wrap;html=1;" parent="1" vertex="1">
          <mxGeometry x="828.88" y="1000" width="20.07" height="20" as="geometry" />
        </mxCell>
        <mxCell id="6w3ceoJ8kKLCBXU54LmV-13" value="Т1" style="rounded=0;whiteSpace=wrap;html=1;" parent="1" vertex="1">
          <mxGeometry x="793.91" y="1000" width="20.07" height="20" as="geometry" />
        </mxCell>
        <mxCell id="6w3ceoJ8kKLCBXU54LmV-15" value="&lt;span style=&quot;font-size: 11px;&quot;&gt;Статус доставки: В пути&lt;/span&gt;" style="rounded=0;whiteSpace=wrap;html=1;" parent="1" vertex="1">
          <mxGeometry x="788.09" y="1020" width="131.91" height="20" as="geometry" />
        </mxCell>
        <mxCell id="6w3ceoJ8kKLCBXU54LmV-7" value="№6" style="rounded=0;whiteSpace=wrap;html=1;fillColor=#fff2cc;gradientColor=#ffd966;strokeColor=#d6b656;" parent="1" vertex="1">
          <mxGeometry x="822.51" y="780" width="50" height="20" as="geometry" />
        </mxCell>
        <mxCell id="uTUmELYXSPTPNxnE2Mq3-78" value="Т1" style="rounded=0;whiteSpace=wrap;html=1;strokeWidth=1;" parent="1" vertex="1">
          <mxGeometry x="138.34" y="572.5" width="21.13" height="25" as="geometry" />
        </mxCell>
        <mxCell id="aNIDtkYZK-gJsD_tiZYX-3" style="edgeStyle=orthogonalEdgeStyle;rounded=0;orthogonalLoop=1;jettySize=auto;html=1;strokeWidth=2;" parent="1" source="nevb3saH_B1YmjPPsue9-17" edge="1">
          <mxGeometry relative="1" as="geometry">
            <mxPoint x="770" y="600" as="targetPoint" />
          </mxGeometry>
        </mxCell>
        <mxCell id="aNIDtkYZK-gJsD_tiZYX-13" value="Альтернативный&amp;nbsp;&lt;div&gt;сценарий&lt;/div&gt;" style="edgeLabel;html=1;align=center;verticalAlign=middle;resizable=0;points=[];" parent="aNIDtkYZK-gJsD_tiZYX-3" vertex="1" connectable="0">
          <mxGeometry x="-0.0038" y="2" relative="1" as="geometry">
            <mxPoint x="-2" y="-20" as="offset" />
          </mxGeometry>
        </mxCell>
        <mxCell id="aNIDtkYZK-gJsD_tiZYX-4" style="edgeStyle=orthogonalEdgeStyle;rounded=0;orthogonalLoop=1;jettySize=auto;html=1;strokeWidth=2;" parent="1" source="nevb3saH_B1YmjPPsue9-92" edge="1">
          <mxGeometry relative="1" as="geometry">
            <mxPoint x="535" y="758" as="targetPoint" />
            <Array as="points">
              <mxPoint x="535" y="758" />
            </Array>
          </mxGeometry>
        </mxCell>
        <mxCell id="aNIDtkYZK-gJsD_tiZYX-5" style="edgeStyle=orthogonalEdgeStyle;rounded=0;orthogonalLoop=1;jettySize=auto;html=1;exitX=0.75;exitY=1;exitDx=0;exitDy=0;strokeWidth=2;entryX=0;entryY=0.25;entryDx=0;entryDy=0;" parent="1" source="Fezao7reDhcHQFRqTaPX-102" target="Fezao7reDhcHQFRqTaPX-108" edge="1">
          <mxGeometry relative="1" as="geometry">
            <mxPoint x="880" y="800" as="targetPoint" />
          </mxGeometry>
        </mxCell>
        <mxCell id="Fezao7reDhcHQFRqTaPX-19" value="&lt;font style=&quot;font-size: 10px;&quot;&gt;&lt;font style=&quot;font-size: 10px;&quot;&gt;Ст&lt;/font&gt;&lt;font style=&quot;font-size: 10px;&quot;&gt;атус доставки:&amp;nbsp;&lt;/font&gt;&lt;/font&gt;&lt;div&gt;&lt;font style=&quot;font-size: 10px;&quot;&gt;&lt;font style=&quot;font-size: 10px;&quot;&gt;Т1 ожидает в ПВ до 16&lt;/font&gt;&lt;/font&gt;&lt;div style=&quot;font-size: 10px;&quot;&gt;&lt;font style=&quot;font-size: 10px;&quot;&gt;Т3 ожидает в ПВ до 17&lt;/font&gt;&lt;div style=&quot;&quot;&gt;&lt;font style=&quot;font-size: 10px;&quot;&gt;Т2 задерживается&lt;/font&gt;&lt;/div&gt;&lt;/div&gt;&lt;/div&gt;" style="rounded=0;whiteSpace=wrap;html=1;align=center;strokeWidth=2;fillColor=#dae8fc;gradientColor=#7ea6e0;strokeColor=#6c8ebf;" parent="1" vertex="1">
          <mxGeometry x="140.18000000000004" y="597.5" width="125.9" height="50" as="geometry" />
        </mxCell>
        <mxCell id="aNIDtkYZK-gJsD_tiZYX-8" value="Т3" style="rounded=0;whiteSpace=wrap;html=1;strokeWidth=1;" parent="1" vertex="1">
          <mxGeometry x="830" y="900" width="20.07" height="25" as="geometry" />
        </mxCell>
      </root>
    </mxGraphModel>
  </diagram>
  <diagram id="n9oQexr7soZysDjqM-Da" name="Use_case">
    <mxGraphModel dx="1036" dy="606" grid="1" gridSize="10" guides="1" tooltips="1" connect="1" arrows="1" fold="1" page="1" pageScale="1" pageWidth="1169" pageHeight="1654" math="0" shadow="0">
      <root>
        <mxCell id="0" />
        <mxCell id="1" parent="0" />
        <mxCell id="CFIiQpnRHgR9M0m3yRN5-1" value="" style="shape=table;startSize=0;container=1;collapsible=0;childLayout=tableLayout;" vertex="1" parent="1">
          <mxGeometry x="80" y="40" width="680" height="760" as="geometry" />
        </mxCell>
        <mxCell id="CFIiQpnRHgR9M0m3yRN5-2" value="" style="shape=tableRow;horizontal=0;startSize=0;swimlaneHead=0;swimlaneBody=0;strokeColor=inherit;top=0;left=0;bottom=0;right=0;collapsible=0;dropTarget=0;fillColor=none;points=[[0,0.5],[1,0.5]];portConstraint=eastwest;" vertex="1" parent="CFIiQpnRHgR9M0m3yRN5-1">
          <mxGeometry width="680" height="45" as="geometry" />
        </mxCell>
        <mxCell id="CFIiQpnRHgR9M0m3yRN5-3" value="&lt;b&gt;Заголовок&lt;/b&gt;" style="shape=partialRectangle;html=1;whiteSpace=wrap;connectable=0;strokeColor=inherit;overflow=hidden;fillColor=none;top=0;left=0;bottom=0;right=0;pointerEvents=1;" vertex="1" parent="CFIiQpnRHgR9M0m3yRN5-2">
          <mxGeometry width="181" height="45" as="geometry">
            <mxRectangle width="181" height="45" as="alternateBounds" />
          </mxGeometry>
        </mxCell>
        <mxCell id="CFIiQpnRHgR9M0m3yRN5-4" value="Отслеживание доставки товаров по Дате доставки в определенную дату в приложении Wildberries" style="shape=partialRectangle;html=1;whiteSpace=wrap;connectable=0;strokeColor=inherit;overflow=hidden;fillColor=none;top=0;left=0;bottom=0;right=0;pointerEvents=1;spacingLeft=7;spacingRight=7;" vertex="1" parent="CFIiQpnRHgR9M0m3yRN5-2">
          <mxGeometry x="181" width="499" height="45" as="geometry">
            <mxRectangle width="499" height="45" as="alternateBounds" />
          </mxGeometry>
        </mxCell>
        <mxCell id="CFIiQpnRHgR9M0m3yRN5-5" value="" style="shape=tableRow;horizontal=0;startSize=0;swimlaneHead=0;swimlaneBody=0;strokeColor=inherit;top=0;left=0;bottom=0;right=0;collapsible=0;dropTarget=0;fillColor=none;points=[[0,0.5],[1,0.5]];portConstraint=eastwest;" vertex="1" parent="CFIiQpnRHgR9M0m3yRN5-1">
          <mxGeometry y="45" width="680" height="45" as="geometry" />
        </mxCell>
        <mxCell id="CFIiQpnRHgR9M0m3yRN5-6" value="&lt;b&gt;Акторы&lt;/b&gt;" style="shape=partialRectangle;html=1;whiteSpace=wrap;connectable=0;strokeColor=inherit;overflow=hidden;fillColor=none;top=0;left=0;bottom=0;right=0;pointerEvents=1;" vertex="1" parent="CFIiQpnRHgR9M0m3yRN5-5">
          <mxGeometry width="181" height="45" as="geometry">
            <mxRectangle width="181" height="45" as="alternateBounds" />
          </mxGeometry>
        </mxCell>
        <mxCell id="CFIiQpnRHgR9M0m3yRN5-7" value="Клиент" style="shape=partialRectangle;html=1;whiteSpace=wrap;connectable=0;strokeColor=inherit;overflow=hidden;fillColor=none;top=0;left=0;bottom=0;right=0;pointerEvents=1;spacingLeft=7;spacingRight=7;" vertex="1" parent="CFIiQpnRHgR9M0m3yRN5-5">
          <mxGeometry x="181" width="499" height="45" as="geometry">
            <mxRectangle width="499" height="45" as="alternateBounds" />
          </mxGeometry>
        </mxCell>
        <mxCell id="CFIiQpnRHgR9M0m3yRN5-8" value="" style="shape=tableRow;horizontal=0;startSize=0;swimlaneHead=0;swimlaneBody=0;strokeColor=inherit;top=0;left=0;bottom=0;right=0;collapsible=0;dropTarget=0;fillColor=none;points=[[0,0.5],[1,0.5]];portConstraint=eastwest;" vertex="1" parent="CFIiQpnRHgR9M0m3yRN5-1">
          <mxGeometry y="90" width="680" height="46" as="geometry" />
        </mxCell>
        <mxCell id="CFIiQpnRHgR9M0m3yRN5-9" value="&lt;b&gt;Предусловие&lt;/b&gt;" style="shape=partialRectangle;html=1;whiteSpace=wrap;connectable=0;strokeColor=inherit;overflow=hidden;fillColor=none;top=0;left=0;bottom=0;right=0;pointerEvents=1;" vertex="1" parent="CFIiQpnRHgR9M0m3yRN5-8">
          <mxGeometry width="181" height="46" as="geometry">
            <mxRectangle width="181" height="46" as="alternateBounds" />
          </mxGeometry>
        </mxCell>
        <mxCell id="CFIiQpnRHgR9M0m3yRN5-10" value="Клиент зарегистрирован и авторизован в приложении Wildberries и ранее оформил заказ" style="shape=partialRectangle;html=1;whiteSpace=wrap;connectable=0;strokeColor=inherit;overflow=hidden;fillColor=none;top=0;left=0;bottom=0;right=0;pointerEvents=1;spacingLeft=7;spacingRight=7;" vertex="1" parent="CFIiQpnRHgR9M0m3yRN5-8">
          <mxGeometry x="181" width="499" height="46" as="geometry">
            <mxRectangle width="499" height="46" as="alternateBounds" />
          </mxGeometry>
        </mxCell>
        <mxCell id="CFIiQpnRHgR9M0m3yRN5-11" value="" style="shape=tableRow;horizontal=0;startSize=0;swimlaneHead=0;swimlaneBody=0;strokeColor=inherit;top=0;left=0;bottom=0;right=0;collapsible=0;dropTarget=0;fillColor=none;points=[[0,0.5],[1,0.5]];portConstraint=eastwest;" vertex="1" parent="CFIiQpnRHgR9M0m3yRN5-1">
          <mxGeometry y="136" width="680" height="46" as="geometry" />
        </mxCell>
        <mxCell id="CFIiQpnRHgR9M0m3yRN5-12" value="&lt;b&gt;Ограничения&lt;/b&gt;" style="shape=partialRectangle;html=1;whiteSpace=wrap;connectable=0;strokeColor=inherit;overflow=hidden;fillColor=none;top=0;left=0;bottom=0;right=0;pointerEvents=1;" vertex="1" parent="CFIiQpnRHgR9M0m3yRN5-11">
          <mxGeometry width="181" height="46" as="geometry">
            <mxRectangle width="181" height="46" as="alternateBounds" />
          </mxGeometry>
        </mxCell>
        <mxCell id="CFIiQpnRHgR9M0m3yRN5-13" value="" style="shape=partialRectangle;html=1;whiteSpace=wrap;connectable=0;strokeColor=inherit;overflow=hidden;fillColor=none;top=0;left=0;bottom=0;right=0;pointerEvents=1;spacingLeft=7;spacingRight=7;" vertex="1" parent="CFIiQpnRHgR9M0m3yRN5-11">
          <mxGeometry x="181" width="499" height="46" as="geometry">
            <mxRectangle width="499" height="46" as="alternateBounds" />
          </mxGeometry>
        </mxCell>
        <mxCell id="CFIiQpnRHgR9M0m3yRN5-14" value="" style="shape=tableRow;horizontal=0;startSize=0;swimlaneHead=0;swimlaneBody=0;strokeColor=inherit;top=0;left=0;bottom=0;right=0;collapsible=0;dropTarget=0;fillColor=none;points=[[0,0.5],[1,0.5]];portConstraint=eastwest;" vertex="1" parent="CFIiQpnRHgR9M0m3yRN5-1">
          <mxGeometry y="182" width="680" height="45" as="geometry" />
        </mxCell>
        <mxCell id="CFIiQpnRHgR9M0m3yRN5-15" value="&lt;b&gt;Триггер&lt;/b&gt;" style="shape=partialRectangle;html=1;whiteSpace=wrap;connectable=0;strokeColor=inherit;overflow=hidden;fillColor=none;top=0;left=0;bottom=0;right=0;pointerEvents=1;" vertex="1" parent="CFIiQpnRHgR9M0m3yRN5-14">
          <mxGeometry width="181" height="45" as="geometry">
            <mxRectangle width="181" height="45" as="alternateBounds" />
          </mxGeometry>
        </mxCell>
        <mxCell id="CFIiQpnRHgR9M0m3yRN5-16" value="Клиент нажимает кнопку &quot;Доставки по дате&quot; в приложении Widberries&lt;div&gt;(экран №1)&lt;/div&gt;" style="shape=partialRectangle;html=1;whiteSpace=wrap;connectable=0;strokeColor=inherit;overflow=hidden;fillColor=none;top=0;left=0;bottom=0;right=0;pointerEvents=1;spacingLeft=7;spacingRight=7;" vertex="1" parent="CFIiQpnRHgR9M0m3yRN5-14">
          <mxGeometry x="181" width="499" height="45" as="geometry">
            <mxRectangle width="499" height="45" as="alternateBounds" />
          </mxGeometry>
        </mxCell>
        <mxCell id="CFIiQpnRHgR9M0m3yRN5-17" value="" style="shape=tableRow;horizontal=0;startSize=0;swimlaneHead=0;swimlaneBody=0;strokeColor=inherit;top=0;left=0;bottom=0;right=0;collapsible=0;dropTarget=0;fillColor=none;points=[[0,0.5],[1,0.5]];portConstraint=eastwest;" vertex="1" parent="CFIiQpnRHgR9M0m3yRN5-1">
          <mxGeometry y="227" width="680" height="280" as="geometry" />
        </mxCell>
        <mxCell id="CFIiQpnRHgR9M0m3yRN5-18" value="&lt;b&gt;Основной сценарий&lt;/b&gt;" style="shape=partialRectangle;html=1;whiteSpace=wrap;connectable=0;strokeColor=inherit;overflow=hidden;fillColor=none;top=0;left=0;bottom=0;right=0;pointerEvents=1;" vertex="1" parent="CFIiQpnRHgR9M0m3yRN5-17">
          <mxGeometry width="181" height="280" as="geometry">
            <mxRectangle width="181" height="280" as="alternateBounds" />
          </mxGeometry>
        </mxCell>
        <mxCell id="CFIiQpnRHgR9M0m3yRN5-19" value="&lt;ol style=&quot;text-align: left;&quot;&gt;&lt;li&gt;Система группирует и отображает заказанные товары по дате доставки с возможностью прокрутки вверх-вних, даты отображены в порядке возрастания(экран №2)&lt;/li&gt;&lt;li&gt;Клиент выбирает дату доставки и нажимает на &quot;Дата доставки: ...&quot; на экране №2&lt;/li&gt;&lt;li&gt;Система отображает экран с выбранной датой доставкой, где отображаются все заказанные товары, которые привезут в выбранную дату (экран №3)&lt;/li&gt;&lt;li&gt;Клиент нажимает &quot;Статус доставки&quot; на экране №3 у выбранного товара&lt;/li&gt;&lt;li&gt;Система отображает всплывающий экран со статусом доставки (экран №4)&lt;/li&gt;&lt;li&gt;Клиент нажимает на стрелочку &quot;Назад&quot; и попадает на экран №3&lt;/li&gt;&lt;li&gt;Система отображает экран с выбранной датой доставкой, где отображаются все заказанные товары, которые привезут в выбранную дату (экран №3)&lt;/li&gt;&lt;li&gt;Клиент нажимает на &quot;QR-код для получения&quot; на экране №3&lt;/li&gt;&lt;/ol&gt;&lt;span style=&quot;background-color: initial;&quot;&gt;&lt;div style=&quot;text-align: left;&quot;&gt;&lt;b style=&quot;font-weight: bold; background-color: initial;&quot;&gt;&lt;span style=&quot;white-space: pre;&quot;&gt;&#x9;&lt;/span&gt;&lt;/b&gt;&lt;b style=&quot;font-weight: bold; background-color: initial; text-align: center;&quot;&gt;Критерий успеха: &lt;/b&gt;&lt;span style=&quot;background-color: initial; text-align: center;&quot;&gt;клиент знает какие товары привезут в определенную дату&lt;/span&gt;&lt;/div&gt;&lt;/span&gt;" style="shape=partialRectangle;html=1;whiteSpace=wrap;connectable=0;strokeColor=inherit;overflow=hidden;fillColor=none;top=0;left=0;bottom=0;right=0;pointerEvents=1;spacingLeft=7;spacingRight=7;" vertex="1" parent="CFIiQpnRHgR9M0m3yRN5-17">
          <mxGeometry x="181" width="499" height="280" as="geometry">
            <mxRectangle width="499" height="280" as="alternateBounds" />
          </mxGeometry>
        </mxCell>
        <mxCell id="CFIiQpnRHgR9M0m3yRN5-20" value="" style="shape=tableRow;horizontal=0;startSize=0;swimlaneHead=0;swimlaneBody=0;strokeColor=inherit;top=0;left=0;bottom=0;right=0;collapsible=0;dropTarget=0;fillColor=none;points=[[0,0.5],[1,0.5]];portConstraint=eastwest;" vertex="1" parent="CFIiQpnRHgR9M0m3yRN5-1">
          <mxGeometry y="507" width="680" height="140" as="geometry" />
        </mxCell>
        <mxCell id="CFIiQpnRHgR9M0m3yRN5-21" value="&lt;b&gt;Альтернативный сценарий&lt;/b&gt;" style="shape=partialRectangle;html=1;whiteSpace=wrap;connectable=0;strokeColor=inherit;overflow=hidden;fillColor=none;top=0;left=0;bottom=0;right=0;pointerEvents=1;" vertex="1" parent="CFIiQpnRHgR9M0m3yRN5-20">
          <mxGeometry width="181" height="140" as="geometry">
            <mxRectangle width="181" height="140" as="alternateBounds" />
          </mxGeometry>
        </mxCell>
        <mxCell id="CFIiQpnRHgR9M0m3yRN5-22" value="4а. Клиент нажимает &quot;Отмена&quot; на экране №3&lt;div&gt;5а. Система отображает всплывающее окно для подтверждения отмены (экран №5)&lt;/div&gt;&lt;div&gt;6а. Клиент нажимает &quot;Отменить&quot; на экране №5&lt;/div&gt;&lt;div&gt;7а. Система преобразует окно №2 в окно №6, где будут отображаться товары&amp;nbsp;&lt;span style=&quot;background-color: initial;&quot;&gt;с группировкой по дате доставке в определенную дату&lt;/span&gt;&lt;span style=&quot;background-color: initial;&quot;&gt;&amp;nbsp;без отмененного клиентом товара (экран №6)&lt;/span&gt;&lt;/div&gt;" style="shape=partialRectangle;html=1;whiteSpace=wrap;connectable=0;strokeColor=inherit;overflow=hidden;fillColor=none;top=0;left=0;bottom=0;right=0;pointerEvents=1;align=left;spacingLeft=7;spacingRight=7;" vertex="1" parent="CFIiQpnRHgR9M0m3yRN5-20">
          <mxGeometry x="181" width="499" height="140" as="geometry">
            <mxRectangle width="499" height="140" as="alternateBounds" />
          </mxGeometry>
        </mxCell>
        <mxCell id="CFIiQpnRHgR9M0m3yRN5-23" value="" style="shape=tableRow;horizontal=0;startSize=0;swimlaneHead=0;swimlaneBody=0;strokeColor=inherit;top=0;left=0;bottom=0;right=0;collapsible=0;dropTarget=0;fillColor=none;points=[[0,0.5],[1,0.5]];portConstraint=eastwest;" vertex="1" parent="CFIiQpnRHgR9M0m3yRN5-1">
          <mxGeometry y="647" width="680" height="113" as="geometry" />
        </mxCell>
        <mxCell id="CFIiQpnRHgR9M0m3yRN5-24" value="&lt;b&gt;Исключительный сценарий&lt;/b&gt;" style="shape=partialRectangle;html=1;whiteSpace=wrap;connectable=0;strokeColor=inherit;overflow=hidden;fillColor=none;top=0;left=0;bottom=0;right=0;pointerEvents=1;" vertex="1" parent="CFIiQpnRHgR9M0m3yRN5-23">
          <mxGeometry width="181" height="113" as="geometry">
            <mxRectangle width="181" height="113" as="alternateBounds" />
          </mxGeometry>
        </mxCell>
        <mxCell id="CFIiQpnRHgR9M0m3yRN5-25" value="&lt;div style=&quot;text-align: left;&quot;&gt;&lt;br&gt;&lt;/div&gt;" style="shape=partialRectangle;html=1;whiteSpace=wrap;connectable=0;strokeColor=inherit;overflow=hidden;fillColor=none;top=0;left=0;bottom=0;right=0;pointerEvents=1;spacingLeft=7;spacingRight=7;" vertex="1" parent="CFIiQpnRHgR9M0m3yRN5-23">
          <mxGeometry x="181" width="499" height="113" as="geometry">
            <mxRectangle width="499" height="113" as="alternateBounds" />
          </mxGeometry>
        </mxCell>
      </root>
    </mxGraphModel>
  </diagram>
</mxfile>
